<svg width="354" height="344" viewBox="0 0 354 344" fill="none" xmlns="http://www.w3.org/2000/svg">
<g id="Frame 23">
<g id="_x34_04">
<g id="Group">
<path id="Vector" d="M76.6802 220.645H15.8252V193.17L76.6802 120.833H105.795V194.728H120.885V220.645H105.795V243.117H76.6802V220.645ZM76.6802 194.728V156.89L44.5242 194.728H76.6802Z" fill="#EFF1C5"/>
<path id="Vector_2" d="M131.302 182.508C131.302 159.654 135.415 143.662 143.645 134.53C151.874 125.399 164.407 120.833 181.249 120.833C189.34 120.833 195.984 121.832 201.178 123.827C206.372 125.823 210.61 128.42 213.89 131.618C217.17 134.817 219.754 138.179 221.64 141.706C223.527 145.232 225.044 149.347 226.192 154.05C228.433 163.017 229.554 172.367 229.554 182.099C229.554 203.914 225.863 219.881 218.482 229.995C211.1 240.111 198.388 245.167 180.345 245.167C170.229 245.167 162.055 243.553 155.823 240.328C149.589 237.103 144.476 232.373 140.486 226.14C137.586 221.712 135.331 215.656 133.72 207.974C132.107 200.292 131.302 191.804 131.302 182.508ZM164.436 182.59C164.436 197.9 165.789 208.357 168.495 213.962C171.202 219.566 175.125 222.368 180.264 222.368C183.654 222.368 186.593 221.179 189.081 218.8C191.569 216.422 193.4 212.664 194.577 207.524C195.752 202.385 196.34 194.374 196.34 183.493C196.34 167.529 194.987 156.798 192.281 151.303C189.574 145.807 185.515 143.06 180.101 143.06C174.578 143.06 170.587 145.863 168.126 151.467C165.666 157.071 164.436 167.446 164.436 182.59Z" fill="#EFF1C5"/>
<path id="Vector_3" d="M300.744 220.645H239.889V193.17L300.744 120.833H329.859V194.728H344.949V220.645H329.859V243.117H300.744V220.645ZM300.744 194.728V156.89L268.589 194.728H300.744Z" fill="#EFF1C5"/>
</g>
</g>
<g id="Planets">
<g id="Group_2">
<g id="Group_3" opacity="0.3">
<path id="Vector_4" d="M129.952 78.6182C129.952 79.6482 129.117 80.4832 128.087 80.4832C127.057 80.4832 126.222 79.6482 126.222 78.6182C126.222 77.5882 127.057 76.7532 128.087 76.7532C129.117 76.7532 129.952 77.5882 129.952 78.6182Z" fill="#EFF1C5"/>
<path id="Vector_5" d="M1.96607 150.452C2.69674 150.452 3.28907 149.86 3.28907 149.129C3.28907 148.398 2.69674 147.806 1.96607 147.806C1.2354 147.806 0.643066 148.398 0.643066 149.129C0.643066 149.86 1.2354 150.452 1.96607 150.452Z" fill="#EFF1C5"/>
<path id="Vector_6" d="M220.054 343.226C221.1 343.226 221.947 342.379 221.947 341.333C221.947 340.288 221.1 339.44 220.054 339.44C219.009 339.44 218.161 340.288 218.161 341.333C218.161 342.379 219.009 343.226 220.054 343.226Z" fill="#EFF1C5"/>
<path id="Vector_7" d="M265.498 266.323C266.229 266.323 266.821 265.731 266.821 265C266.821 264.27 266.229 263.677 265.498 263.677C264.767 263.677 264.175 264.27 264.175 265C264.175 265.731 264.767 266.323 265.498 266.323Z" fill="#EFF1C5"/>
<path id="Vector_8" d="M353.173 28.6191C353.173 29.3501 352.581 29.9421 351.85 29.9421C351.119 29.9421 350.527 29.3501 350.527 28.6191C350.527 27.8881 351.119 27.2961 351.85 27.2961C352.581 27.2961 353.173 27.8881 353.173 28.6191Z" fill="#EFF1C5"/>
<path id="Vector_9" d="M101.754 1.96313C101.754 2.69413 101.162 3.28614 100.431 3.28614C99.7001 3.28614 99.1081 2.69413 99.1081 1.96313C99.1081 1.23213 99.7001 0.640137 100.431 0.640137C101.162 0.640137 101.754 1.23213 101.754 1.96313Z" fill="#EFF1C5"/>
<path id="Vector_10" d="M206.695 71.2661C207.426 71.2661 208.018 70.6738 208.018 69.9431C208.018 69.2124 207.426 68.6201 206.695 68.6201C205.964 68.6201 205.372 69.2124 205.372 69.9431C205.372 70.6738 205.964 71.2661 206.695 71.2661Z" fill="#EFF1C5"/>
</g>
<g id="Group_4">
<g id="Group_5">
<path id="Vector_11" d="M70.2331 71.2712C82.3336 71.2712 92.1431 61.4617 92.1431 49.3612C92.1431 37.2606 82.3336 27.4512 70.2331 27.4512C58.1325 27.4512 48.3231 37.2606 48.3231 49.3612C48.3231 61.4617 58.1325 71.2712 70.2331 71.2712Z" fill="#EFF1C5"/>
<path id="Vector_12" opacity="0.7" d="M70.2331 71.2712C82.3336 71.2712 92.1431 61.4617 92.1431 49.3612C92.1431 37.2606 82.3336 27.4512 70.2331 27.4512C58.1325 27.4512 48.3231 37.2606 48.3231 49.3612C48.3231 61.4617 58.1325 71.2712 70.2331 71.2712Z" fill="white"/>
</g>
<path id="Vector_13" opacity="0.2" d="M62.6821 32.8301C59.6111 32.8301 56.6961 33.4651 54.0411 34.6001C50.4911 38.4931 48.3251 43.6781 48.3251 49.3621C48.3251 61.4591 58.1321 71.2661 70.2291 71.2661C73.3101 71.2661 76.2461 70.6311 78.9121 69.4861C78.9121 69.4861 78.9121 69.4861 78.9121 69.4761C82.4411 65.5821 84.5961 60.4181 84.5961 54.7451C84.5971 42.6371 74.7901 32.8301 62.6821 32.8301Z" fill="#EFF1C5"/>
<path id="Vector_14" opacity="0.2" d="M60.504 38.6231C60.504 39.7291 59.6071 40.6261 58.5011 40.6261C57.3951 40.6261 56.498 39.7291 56.498 38.6231C56.498 37.5171 57.3951 36.6201 58.5011 36.6201C59.6071 36.6201 60.504 37.5171 60.504 38.6231Z" fill="#EFF1C5"/>
<path id="Vector_15" opacity="0.2" d="M84.064 36.6202C84.064 37.7262 83.1671 38.6232 82.0611 38.6232C80.9551 38.6232 80.058 37.7262 80.058 36.6202C80.058 35.5142 80.9551 34.6172 82.0611 34.6172C83.1671 34.6182 84.064 35.5142 84.064 36.6202Z" fill="#EFF1C5"/>
<path id="Vector_16" opacity="0.2" d="M80.0581 50.9013C80.0581 52.7113 78.5911 54.1793 76.7801 54.1793C74.9701 54.1793 73.5021 52.7113 73.5021 50.9013C73.5021 49.0913 74.9691 47.6233 76.7801 47.6233C78.5901 47.6233 80.0581 49.0913 80.0581 50.9013Z" fill="#EFF1C5"/>
<path id="Vector_17" opacity="0.2" d="M69.6421 60.2462C69.6421 62.6662 67.6801 64.6272 65.2611 64.6272C62.8411 64.6272 60.8801 62.6652 60.8801 60.2462C60.8801 57.8262 62.8421 55.8652 65.2611 55.8652C67.6801 55.8652 69.6421 57.8272 69.6421 60.2462Z" fill="#EFF1C5"/>
</g>
<g id="Group_6">
<g id="Group_7">
<path id="Vector_18" d="M329.907 313.704C332.347 303.37 325.948 293.015 315.615 290.575C305.281 288.135 294.926 294.534 292.486 304.867C290.046 315.201 296.445 325.556 306.778 327.996C317.112 330.436 327.467 324.037 329.907 313.704Z" fill="#EFF1C5"/>
<path id="Vector_19" opacity="0.3" d="M329.907 313.704C332.347 303.37 325.948 293.015 315.615 290.575C305.281 288.135 294.926 294.534 292.486 304.867C290.046 315.201 296.445 325.556 306.778 327.996C317.112 330.436 327.467 324.037 329.907 313.704Z" fill="white"/>
</g>
<path id="Vector_20" opacity="0.4" d="M323.333 294.339C321.584 293.808 319.721 293.527 317.795 293.527C307.176 293.527 298.566 302.137 298.566 312.755C298.566 318.773 301.325 324.134 305.656 327.663C307.405 328.194 309.268 328.475 311.195 328.475C321.814 328.475 330.423 319.865 330.423 309.247C330.423 303.23 327.664 297.858 323.333 294.339Z" fill="#EFF1C5"/>
<path id="Vector_21" d="M292.83 314.948C272.296 324.61 287.614 332.057 316.542 321.661C343.326 312.035 353.509 299.892 329.594 303.655C330.828 308.763 297.282 321.834 292.83 314.948Z" fill="#EFF1C5"/>
</g>
</g>
</g>
<g id="Astronaut">
<g id="Group_8">
<path id="Vector_22" opacity="0.2" d="M323.097 120.83C296.207 139 261.397 162.96 251.787 220.64H249.737C259.087 163.66 292.627 139.07 319.527 120.83H323.097Z" fill="#21212E"/>
<g id="Group_9">
<path id="Vector_23" d="M184.019 301.267C167.049 301.268 150.21 293.605 142.033 281.081C136.98 273.342 131.113 257.131 148.588 235.503L150.144 236.761C137.782 252.06 135.496 267.411 143.708 279.988C153.702 295.297 177.304 302.994 197.438 297.516C218.066 291.903 230.59 273.959 231.799 248.288C235.934 160.481 282.583 133.433 316.645 113.683C337.807 101.413 353.097 92.547 349.736 73.845C349.27 71.25 348.235 69.457 346.573 68.364C342.22 65.496 333.72 67.478 323.879 69.772C304.573 74.269 278.133 80.429 262.382 53.638L264.106 52.624C279.112 78.147 303.683 72.424 323.425 67.823C333.715 65.427 342.602 63.356 347.673 66.692C349.818 68.104 351.137 70.328 351.705 73.491C355.314 93.573 338.692 103.211 317.648 115.413C283.984 134.932 237.88 161.664 233.796 248.381C232.544 274.977 219.483 293.589 197.962 299.445C193.427 300.679 188.716 301.266 184.019 301.267Z" fill="#EFF1C5"/>
<path id="Vector_24" opacity="0.2" d="M184.019 301.267C167.049 301.268 150.21 293.605 142.033 281.081C136.98 273.342 131.113 257.131 148.588 235.503L150.144 236.761C137.782 252.06 135.496 267.411 143.708 279.988C153.702 295.297 177.304 302.994 197.438 297.516C218.066 291.903 230.59 273.959 231.799 248.288C235.934 160.481 282.583 133.433 316.645 113.683C337.807 101.413 353.097 92.547 349.736 73.845C349.27 71.25 348.235 69.457 346.573 68.364C342.22 65.496 333.72 67.478 323.879 69.772C304.573 74.269 278.133 80.429 262.382 53.638L264.106 52.624C279.112 78.147 303.683 72.424 323.425 67.823C333.715 65.427 342.602 63.356 347.673 66.692C349.818 68.104 351.137 70.328 351.705 73.491C355.314 93.573 338.692 103.211 317.648 115.413C283.984 134.932 237.88 161.664 233.796 248.381C232.544 274.977 219.483 293.589 197.962 299.445C193.427 300.679 188.716 301.266 184.019 301.267Z" fill="white"/>
</g>
<g id="Group_10">
<g id="Group_11">
<path id="Vector_25" d="M241.758 29.9491C248.613 29.8241 255.34 32.0831 255.34 32.0831C255.34 32.0831 266.305 50.8541 267.642 55.1501C267.181 59.3901 260.027 66.3411 260.027 66.3411L241.758 29.9491Z" fill="#EFF1C5"/>
<path id="Vector_26" opacity="0.3" d="M241.758 29.9491C248.613 29.8241 255.34 32.0831 255.34 32.0831C255.34 32.0831 266.305 50.8541 267.642 55.1501C267.181 59.3901 260.027 66.3411 260.027 66.3411L241.758 29.9491Z" fill="white"/>
</g>
<g id="Group_12">
<g id="Group_13">
<path id="Vector_27" d="M274.339 121.133C270.203 115.885 266.142 110.539 262.78 104.748C261.94 103.301 261.144 101.827 260.391 100.333C259.963 99.4841 259.549 98.6282 259.147 97.7662C258.796 97.0132 258.021 95.9042 257.943 95.0822C256.742 82.4102 261.08 73.0822 256.915 62.9102L240.444 69.3472C240.444 69.3472 241.845 87.4692 245.042 98.3102C247.026 105.036 251.517 110.859 255.845 116.247C257.199 117.933 258.504 119.657 259.855 121.345C261.134 122.943 262.567 124.409 263.849 125.999C265.796 128.412 266.444 130.715 264.964 133.56C264.885 133.712 264.802 133.863 264.717 134.013C264.297 134.754 266.263 135.594 267.498 134.034C269.54 131.453 269.219 131.612 270.96 129.411C272.017 128.075 273.231 126.632 274.279 125.378C275.303 124.155 275.326 122.385 274.339 121.133Z" fill="#EFF1C5"/>
<path id="Vector_28" opacity="0.7" d="M274.339 121.133C270.203 115.885 266.142 110.539 262.78 104.748C261.94 103.301 261.144 101.827 260.391 100.333C259.963 99.4841 259.549 98.6282 259.147 97.7662C258.796 97.0132 258.021 95.9042 257.943 95.0822C256.742 82.4102 261.08 73.0822 256.915 62.9102L240.444 69.3472C240.444 69.3472 241.845 87.4692 245.042 98.3102C247.026 105.036 251.517 110.859 255.845 116.247C257.199 117.933 258.504 119.657 259.855 121.345C261.134 122.943 262.567 124.409 263.849 125.999C265.796 128.412 266.444 130.715 264.964 133.56C264.885 133.712 264.802 133.863 264.717 134.013C264.297 134.754 266.263 135.594 267.498 134.034C269.54 131.453 269.219 131.612 270.96 129.411C272.017 128.075 273.231 126.632 274.279 125.378C275.303 124.155 275.326 122.385 274.339 121.133Z" fill="white"/>
</g>
<path id="Vector_29" opacity="0.3" d="M270.312 115.918C268.107 118.583 263.624 122.04 261.648 123.441C262.078 123.92 262.504 124.409 262.931 124.898C266.999 122.241 270.215 118.794 271.435 117.394C271.058 116.909 270.685 116.413 270.312 115.918Z" fill="#EFF1C5"/>
<path id="Vector_30" opacity="0.3" d="M274.335 121.135C274.297 121.083 274.257 121.041 274.219 120.99C273.525 121.713 273.036 122.866 272.954 124.16C272.888 125.054 273.038 125.872 273.331 126.511C273.664 126.125 273.975 125.743 274.28 125.38C275.308 124.156 275.322 122.387 274.335 121.135Z" fill="#EFF1C5"/>
</g>
<g id="Group_14">
<g id="Group_15">
<path id="Vector_31" d="M237.842 41.9513C236.119 44.4573 234.088 46.9273 231.467 49.1453C230.166 50.2603 228.681 51.2693 227.05 52.1253C226.227 52.5453 225.362 52.9093 224.467 53.2103L223.792 53.4273L223.574 53.4953C223.416 53.5433 223.257 53.5863 223.097 53.6243C222.795 53.6923 222.492 53.7383 222.224 53.7603C221.141 53.8423 220.356 53.6883 219.709 53.5273C218.432 53.1793 217.579 52.7143 216.772 52.2633C215.977 51.8043 215.279 51.3343 214.618 50.8493C213.316 49.8583 212.138 48.8633 211.04 47.8013C208.83 45.6913 206.87 43.5033 205.05 41.0663C204.22 39.9553 204.448 38.3823 205.559 37.5533C206.416 36.9123 207.549 36.9023 208.402 37.4413L208.478 37.4903C210.838 38.9883 213.219 40.5683 215.542 41.9823C216.715 42.6743 217.861 43.3703 218.988 43.9123C219.542 44.1923 220.085 44.4473 220.575 44.6283C221.052 44.8143 221.528 44.9203 221.652 44.8953C221.704 44.8923 221.642 44.8213 221.274 44.8343C221.185 44.8393 221.059 44.8513 220.931 44.8793C220.857 44.8933 220.785 44.9123 220.713 44.9353C220.644 44.9583 220.742 44.9163 220.748 44.9103L221.079 44.7413C221.519 44.5173 221.941 44.2373 222.369 43.9523C223.225 43.3733 224.04 42.6383 224.872 41.8323C226.518 40.1973 228.102 38.1623 229.774 36.0463L229.796 36.0173C231.508 33.8493 234.654 33.4803 236.822 35.1923C238.898 36.8313 239.315 39.8003 237.842 41.9513Z" fill="#EFF1C5"/>
<path id="Vector_32" opacity="0.7" d="M237.842 41.9513C236.119 44.4573 234.088 46.9273 231.467 49.1453C230.166 50.2603 228.681 51.2693 227.05 52.1253C226.227 52.5453 225.362 52.9093 224.467 53.2103L223.792 53.4273L223.574 53.4953C223.416 53.5433 223.257 53.5863 223.097 53.6243C222.795 53.6923 222.492 53.7383 222.224 53.7603C221.141 53.8423 220.356 53.6883 219.709 53.5273C218.432 53.1793 217.579 52.7143 216.772 52.2633C215.977 51.8043 215.279 51.3343 214.618 50.8493C213.316 49.8583 212.138 48.8633 211.04 47.8013C208.83 45.6913 206.87 43.5033 205.05 41.0663C204.22 39.9553 204.448 38.3823 205.559 37.5533C206.416 36.9123 207.549 36.9023 208.402 37.4413L208.478 37.4903C210.838 38.9883 213.219 40.5683 215.542 41.9823C216.715 42.6743 217.861 43.3703 218.988 43.9123C219.542 44.1923 220.085 44.4473 220.575 44.6283C221.052 44.8143 221.528 44.9203 221.652 44.8953C221.704 44.8923 221.642 44.8213 221.274 44.8343C221.185 44.8393 221.059 44.8513 220.931 44.8793C220.857 44.8933 220.785 44.9123 220.713 44.9353C220.644 44.9583 220.742 44.9163 220.748 44.9103L221.079 44.7413C221.519 44.5173 221.941 44.2373 222.369 43.9523C223.225 43.3733 224.04 42.6383 224.872 41.8323C226.518 40.1973 228.102 38.1623 229.774 36.0463L229.796 36.0173C231.508 33.8493 234.654 33.4803 236.822 35.1923C238.898 36.8313 239.315 39.8003 237.842 41.9513Z" fill="white"/>
</g>
<g id="Group_16">
<path id="Vector_33" d="M201.285 35.4162L202.457 37.3822C202.457 37.3822 203.352 39.9982 205.143 40.4822L209.997 38.9102L209.754 38.5022C209.756 38.5032 209.759 38.5032 209.761 38.5032C209.139 37.5562 209.206 35.7302 209.425 34.2112C209.643 32.6922 208.855 32.6382 208.273 33.0162C207.937 33.2342 207.699 33.9272 207.426 34.6742C207.187 34.3452 206.931 34.0282 206.642 33.7402L205.159 32.2632C204.519 31.6262 203.494 31.5972 202.819 32.1972L201.617 33.2652C201.005 33.8092 200.866 34.7122 201.285 35.4162Z" fill="#EFF1C5"/>
<path id="Vector_34" opacity="0.7" d="M201.285 35.4162L202.457 37.3822C202.457 37.3822 203.352 39.9982 205.143 40.4822L209.997 38.9102L209.754 38.5022C209.756 38.5032 209.759 38.5032 209.761 38.5032C209.139 37.5562 209.206 35.7302 209.425 34.2112C209.643 32.6922 208.855 32.6382 208.273 33.0162C207.937 33.2342 207.699 33.9272 207.426 34.6742C207.187 34.3452 206.931 34.0282 206.642 33.7402L205.159 32.2632C204.519 31.6262 203.494 31.5972 202.819 32.1972L201.617 33.2652C201.005 33.8092 200.866 34.7122 201.285 35.4162Z" fill="white"/>
</g>
</g>
<g id="Group_17">
<path id="Vector_35" d="M246.674 28.224C242.025 29.352 235.638 32.005 231.325 34.692C229.796 35.644 229.033 37.452 229.393 39.217C231.317 48.657 235.707 61.302 240.446 69.346L262.557 60.199C262.709 56.299 257.341 43.679 251.873 31.482C250.891 29.288 249.01 27.658 246.674 28.224Z" fill="#EFF1C5"/>
<path id="Vector_36" opacity="0.8" d="M246.674 28.224C242.025 29.352 235.638 32.005 231.325 34.692C229.796 35.644 229.033 37.452 229.393 39.217C231.317 48.657 235.707 61.302 240.446 69.346L262.557 60.199C262.709 56.299 257.341 43.679 251.873 31.482C250.891 29.288 249.01 27.658 246.674 28.224Z" fill="white"/>
</g>
<path id="Vector_37" opacity="0.3" d="M255.296 39.2142L250.908 37.7432C251.89 40.3102 255.441 43.5642 257.938 45.4752C257.115 43.4692 256.223 41.3722 255.296 39.2142Z" fill="#EFF1C5"/>
<g id="Group_18">
<path id="Vector_38" d="M245.217 18.3201C243.392 14.8391 239.443 13.0871 234.701 13.4831C230.703 13.8171 227.157 17.8991 227.578 20.1051C227.998 22.3111 231.363 23.2451 231.972 24.0111L229.199 26.0211C227.819 27.0221 227.549 28.9681 228.603 30.3081C229.77 31.7901 231.306 33.3381 232.201 34.4311C239.865 34.2321 245.533 31.3081 247.575 28.4951C246.841 24.9161 247.032 21.7821 245.217 18.3201Z" fill="#EFF1C5"/>
<path id="Vector_39" opacity="0.8" d="M245.217 18.3201C243.392 14.8391 239.443 13.0871 234.701 13.4831C230.703 13.8171 227.157 17.8991 227.578 20.1051C227.998 22.3111 231.363 23.2451 231.972 24.0111L229.199 26.0211C227.819 27.0221 227.549 28.9681 228.603 30.3081C229.77 31.7901 231.306 33.3381 232.201 34.4311C239.865 34.2321 245.533 31.3081 247.575 28.4951C246.841 24.9161 247.032 21.7821 245.217 18.3201Z" fill="white"/>
</g>
<path id="Vector_40" d="M241.461 20.476C242.983 24.372 241.06 28.764 237.164 30.286C233.268 31.808 228.876 29.885 227.354 25.989C225.832 22.094 227.755 17.701 231.651 16.179C235.546 14.657 239.938 16.581 241.461 20.476Z" fill="#21212E"/>
<g id="Group_19">
<g id="Group_20">
<path id="Vector_41" d="M306.388 110.596C306.277 107.307 306.135 107.636 306.039 104.832C305.981 103.129 305.974 101.243 305.963 99.609C305.952 98.014 304.825 96.649 303.262 96.332C301.937 96.063 300.608 95.807 299.285 95.525C297.559 95.157 295.853 94.761 294.158 94.269C292.844 93.887 291.541 93.466 290.253 93.002C288.873 92.505 287.512 91.96 286.164 91.382C284.588 90.706 283.031 89.986 281.486 89.244C279.761 88.416 278.049 87.56 276.343 86.693C269.762 75.798 269.62 68.619 262.557 60.198L247.397 67.056C247.397 67.056 258.536 86.821 266.122 95.201C270.489 100.024 277.34 102.198 283.45 103.776C287.858 104.914 292.328 105.785 296.803 106.607C298.543 106.926 300.434 107.05 301.931 108.089C303.11 108.907 303.72 110.184 304.068 111.541C304.139 111.818 304.199 112.098 304.253 112.38C304.413 113.217 306.456 112.585 306.388 110.596Z" fill="#EFF1C5"/>
<path id="Vector_42" opacity="0.8" d="M306.388 110.596C306.277 107.307 306.135 107.636 306.039 104.832C305.981 103.129 305.974 101.243 305.963 99.609C305.952 98.014 304.825 96.649 303.262 96.332C301.937 96.063 300.608 95.807 299.285 95.525C297.559 95.157 295.853 94.761 294.158 94.269C292.844 93.887 291.541 93.466 290.253 93.002C288.873 92.505 287.512 91.96 286.164 91.382C284.588 90.706 283.031 89.986 281.486 89.244C279.761 88.416 278.049 87.56 276.343 86.693C269.762 75.798 269.62 68.619 262.557 60.198L247.397 67.056C247.397 67.056 258.536 86.821 266.122 95.201C270.489 100.024 277.34 102.198 283.45 103.776C287.858 104.914 292.328 105.785 296.803 106.607C298.543 106.926 300.434 107.05 301.931 108.089C303.11 108.907 303.72 110.184 304.068 111.541C304.139 111.818 304.199 112.098 304.253 112.38C304.413 113.217 306.456 112.585 306.388 110.596Z" fill="white"/>
</g>
<path id="Vector_43" opacity="0.3" d="M298.7 95.3999C298.103 95.2689 297.497 95.1349 296.894 94.9919C296.941 98.4449 295.322 104.409 294.727 106.216C295.358 106.335 295.998 106.457 296.629 106.577C298.384 101.832 298.66 96.8089 298.7 95.3999Z" fill="#EFF1C5"/>
<path id="Vector_44" opacity="0.3" d="M305.961 99.6101C305.95 98.0111 304.827 96.6491 303.267 96.3291C302.953 96.2651 302.629 96.1971 302.313 96.1431C302.379 97.0831 302.963 98.1741 303.941 99.0401C304.582 99.6181 305.307 100.002 305.973 100.183C305.963 99.9841 305.962 99.7971 305.961 99.6101Z" fill="#EFF1C5"/>
</g>
<path id="Vector_45" d="M240.046 20.5401C240.451 22.0561 238.754 23.6501 237.396 22.3391C236.294 21.2751 234.634 19.4931 233.279 18.6461C231.887 17.7751 233.743 16.2591 235.929 16.8471C237.97 17.3971 239.641 19.0231 240.046 20.5401Z" fill="white"/>
<g id="Group_21">
<path id="Vector_46" d="M240.161 68.86C239.456 69.12 240.744 70.316 240.744 70.316C240.744 70.316 254.714 65.529 263.239 60.6C263.311 59.569 262.561 59.022 262.561 59.022C262.561 59.022 252.189 64.426 240.161 68.86Z" fill="#EFF1C5"/>
<path id="Vector_47" opacity="0.5" d="M240.161 68.86C239.456 69.12 240.744 70.316 240.744 70.316C240.744 70.316 254.714 65.529 263.239 60.6C263.311 59.569 262.561 59.022 262.561 59.022C262.561 59.022 252.189 64.426 240.161 68.86Z" fill="white"/>
</g>
<g id="Group_22">
<g id="Group_23">
<path id="Vector_48" d="M250.46 27.5632C253.218 28.9562 255.814 30.4312 258.407 32.0642C259.698 32.8772 260.983 33.7121 262.249 34.6131C263.525 35.4961 264.784 36.4271 266.047 37.4751L266.521 37.8631L267.112 38.3962C267.532 38.7662 267.84 39.1071 268.149 39.4471C268.473 39.7981 268.74 40.1361 269.003 40.4731C269.276 40.8121 269.535 41.1492 269.768 41.4812C270.757 42.8092 271.563 44.1601 272.354 45.5001C273.891 48.2171 275.222 50.9301 276.32 53.8491C276.81 55.1511 276.152 56.6032 274.849 57.0942C273.871 57.4622 272.807 57.1822 272.131 56.4682L272.082 56.4142C270.073 54.2861 268.146 52.0411 266.207 49.9562C264.31 47.8771 262.295 45.7432 260.67 44.8152C258.4 43.3992 255.872 41.9931 253.36 40.6081L245.797 36.4102L245.778 36.4001C243.363 35.0601 242.492 32.0161 243.832 29.6011C245.141 27.2461 248.077 26.3632 250.46 27.5632Z" fill="#EFF1C5"/>
<path id="Vector_49" opacity="0.8" d="M250.46 27.5632C253.218 28.9562 255.814 30.4312 258.407 32.0642C259.698 32.8772 260.983 33.7121 262.249 34.6131C263.525 35.4961 264.784 36.4271 266.047 37.4751L266.521 37.8631L267.112 38.3962C267.532 38.7662 267.84 39.1071 268.149 39.4471C268.473 39.7981 268.74 40.1361 269.003 40.4731C269.276 40.8121 269.535 41.1492 269.768 41.4812C270.757 42.8092 271.563 44.1601 272.354 45.5001C273.891 48.2171 275.222 50.9301 276.32 53.8491C276.81 55.1511 276.152 56.6032 274.849 57.0942C273.871 57.4622 272.807 57.1822 272.131 56.4682L272.082 56.4142C270.073 54.2861 268.146 52.0411 266.207 49.9562C264.31 47.8771 262.295 45.7432 260.67 44.8152C258.4 43.3992 255.872 41.9931 253.36 40.6081L245.797 36.4102L245.778 36.4001C243.363 35.0601 242.492 32.0161 243.832 29.6011C245.141 27.2461 248.077 26.3632 250.46 27.5632Z" fill="white"/>
</g>
<g id="Group_24">
<path id="Vector_50" d="M278.733 58.7381L277.884 56.6131C277.884 56.6131 277.41 53.8891 275.717 53.1301L270.677 53.9221L270.853 54.3631C270.851 54.3621 270.849 54.3611 270.846 54.3611C271.312 55.3931 270.959 57.1871 270.505 58.6521C270.051 60.1181 270.821 60.2951 271.455 60.0131C271.821 59.8501 272.165 59.2031 272.551 58.5081C272.736 58.8711 272.939 59.2241 273.179 59.5531L274.412 61.2441C274.944 61.9731 275.952 62.1631 276.713 61.6761L278.067 60.8091C278.758 60.3681 279.038 59.4991 278.733 58.7381Z" fill="#EFF1C5"/>
<path id="Vector_51" opacity="0.8" d="M278.733 58.7381L277.884 56.6131C277.884 56.6131 277.41 53.8891 275.717 53.1301L270.677 53.9221L270.853 54.3631C270.851 54.3621 270.849 54.3611 270.846 54.3611C271.312 55.3931 270.959 57.1871 270.505 58.6521C270.051 60.1181 270.821 60.2951 271.455 60.0131C271.821 59.8501 272.165 59.2031 272.551 58.5081C272.736 58.8711 272.939 59.2241 273.179 59.5531L274.412 61.2441C274.944 61.9731 275.952 62.1631 276.713 61.6761L278.067 60.8091C278.758 60.3681 279.038 59.4991 278.733 58.7381Z" fill="white"/>
</g>
</g>
<g id="Group_25">
<g id="Group_26">
<path id="Vector_52" opacity="0.3" d="M246.236 39.0571L245.017 39.1561L237.532 57.2401C237.972 57.2701 238.376 57.2331 238.75 57.1411C238.75 57.1411 248.51 53.5041 251.464 52.1711C249.476 48.0511 246.236 39.0571 246.236 39.0571Z" fill="#EFF1C5"/>
<path id="Vector_53" d="M232.568 43.8022C232.985 47.0592 235.427 53.9812 237.533 57.2402C241.188 55.9802 247.293 53.6032 250.247 52.2702C248.258 48.1512 246.164 42.4752 245.018 39.1572C241.869 39.3662 235.006 41.9512 232.568 43.8022Z" fill="white"/>
</g>
<path id="Vector_54" opacity="0.3" d="M240 47.713C239.592 49.078 238.154 49.853 236.79 49.444C235.426 49.035 234.65 47.598 235.059 46.234C235.468 44.869 236.905 44.094 238.269 44.503C239.633 44.911 240.408 46.348 240 47.713Z" fill="#EFF1C5"/>
<path id="Vector_55" opacity="0.6" d="M241.913 44.2682C241.779 44.7152 241.308 44.9692 240.861 44.8352C240.414 44.7012 240.16 44.2302 240.293 43.7832C240.427 43.3362 240.898 43.0822 241.345 43.2162C241.793 43.3492 242.047 43.8202 241.913 44.2682Z" fill="#EFF1C5"/>
<path id="Vector_56" opacity="0.6" d="M244.145 43.3991C244.011 43.8461 243.54 44.1001 243.093 43.9661C242.646 43.8321 242.392 43.3611 242.526 42.9141C242.66 42.4671 243.131 42.2131 243.578 42.3471C244.025 42.4811 244.279 42.9521 244.145 43.3991Z" fill="#EFF1C5"/>
<path id="Vector_57" opacity="0.5" d="M247.291 51.1872L238.044 54.8412L237.485 53.0232L246.732 49.3682L247.291 51.1872Z" fill="#EFF1C5"/>
</g>
</g>
</g>
</g>
<g id="Rocket">
<g id="Group_27">
<path id="Vector_58" opacity="0.2" d="M196.257 190.17C196.057 197.71 195.497 203.5 194.577 207.52C193.397 212.66 191.567 216.42 189.077 218.8C186.597 221.18 183.657 222.37 180.267 222.37C175.127 222.37 171.197 219.57 168.497 213.96C168.057 213.05 167.657 212.01 167.287 210.85C161.577 215.76 156.257 221.12 151.367 226.88L146.057 233.14C148.927 236.05 152.187 238.44 155.827 240.33C162.057 243.55 170.227 245.17 180.347 245.17C182.127 245.17 183.847 245.12 185.517 245.02C191.637 235.96 196.707 226.22 200.617 216L215.467 177.28L196.257 190.17Z" fill="#21212E"/>
<g id="Group_28">
<g id="Group_29">
<path id="Vector_59" d="M62.388 242.958C67.985 248.555 79.89 260.46 79.89 260.46L128.901 214.293C112.035 207.881 79.159 226.188 62.388 242.958Z" fill="#21212E"/>
<path id="Vector_60" d="M123.422 303.992C117.825 298.395 105.92 286.49 105.92 286.49L152.087 237.48C158.499 254.345 140.193 287.221 123.422 303.992Z" fill="#21212E"/>
<g id="Group_30">
<path id="Vector_61" d="M190.399 193.699L209.49 156.89L172.681 175.981C160.855 182.115 149.937 189.858 140.237 198.989L77.49 258.059L108.32 288.889L167.39 226.142C176.522 216.443 184.265 205.525 190.399 193.699Z" fill="#EFF1C5"/>
<path id="Vector_62" opacity="0.6" d="M190.399 193.699L209.49 156.89L172.681 175.981C160.855 182.115 149.937 189.858 140.237 198.989L77.49 258.059L108.32 288.889L167.39 226.142C176.522 216.443 184.265 205.525 190.399 193.699Z" fill="white"/>
</g>
<path id="Vector_63" d="M151.198 228.082C158.322 228.082 164.097 222.307 164.097 215.183C164.097 208.059 158.322 202.284 151.198 202.284C144.074 202.284 138.299 208.059 138.299 215.183C138.299 222.307 144.074 228.082 151.198 228.082Z" fill="white"/>
<path id="Vector_64" d="M151.197 223.468C155.773 223.468 159.482 219.759 159.482 215.183C159.482 210.608 155.773 206.898 151.197 206.898C146.621 206.898 142.912 210.608 142.912 215.183C142.912 219.759 146.621 223.468 151.197 223.468Z" fill="#EFF1C5"/>
<path id="Vector_65" opacity="0.3" d="M118.746 277.816L88.564 247.635L113.275 224.371L142.009 253.105L118.746 277.816Z" fill="#EFF1C5"/>
<g id="Group_31">
<path id="Vector_66" d="M69.22 270.616C46.615 272.455 39.127 286.922 36.573 306.155C35.271 315.964 34.693 325.888 26.456 331.63C24.17 333.224 25.305 336.777 28.091 336.69C58.43 335.743 72.581 320.886 74.358 314.665C73.746 318.598 72.854 321.7 71.866 324.14C70.85 326.647 73.603 328.967 75.895 327.531C84.412 322.195 95.094 312.376 95.804 296.453C89.507 287.603 69.22 270.616 69.22 270.616Z" fill="#EFF1C5"/>
<path id="Vector_67" opacity="0.2" d="M69.22 270.616C46.615 272.455 39.127 286.922 36.573 306.155C35.271 315.964 34.693 325.888 26.456 331.63C24.17 333.224 25.305 336.777 28.091 336.69C58.43 335.743 72.581 320.886 74.358 314.665C73.746 318.598 72.854 321.7 71.866 324.14C70.85 326.647 73.603 328.967 75.895 327.531C84.412 322.195 95.094 312.376 95.804 296.453C89.507 287.603 69.22 270.616 69.22 270.616Z" fill="white"/>
</g>
<path id="Vector_68" d="M99.276 303.3L63.08 267.104L82.363 262.933L103.448 284.017L99.276 303.3Z" fill="#EFF1C5"/>
</g>
</g>
</g>
</g>
</g>
</svg>
